<svg width="28" height="28" viewBox="0 0 28 28" fill="none" xmlns="http://www.w3.org/2000/svg">
<g id="Arctic">
<path id="Vector" d="M13.125 8.03339V12.4844L8.81509 9.99604L8.83377 5.80088L7.08378 5.79308L7.06956 8.98825L4.83906 7.70048L3.96406 9.21602L6.19456 10.5038L3.43457 12.1137L4.31631 13.6253L7.94008 11.5116L12.25 13.9999L8.39555 16.2253L4.23777 14.3338L3.51311 15.9267L6.53309 17.3006L3.96404 18.7838L4.83904 20.2993L7.40801 18.8161L7.08786 22.1183L8.82969 22.2872L9.27047 17.7409L13.125 15.5154V20.4921L9.48255 22.5735L10.3508 24.0929L13.125 22.5076V25.0832H14.875V22.5076L17.6492 24.0929L18.5175 22.5735L14.875 20.4921V15.5155L18.7295 17.7409L19.1703 22.2873L20.9122 22.1184L20.592 18.8162L23.161 20.2994L24.036 18.7838L21.467 17.3006L24.4869 15.9268L23.7623 14.3339L19.6045 16.2253L15.75 13.9999L20.0599 11.5116L23.6837 13.6253L24.5654 12.1137L21.8055 10.5038L24.0359 9.21601L23.1609 7.70046L20.9305 8.98824L20.9162 5.79307L19.1662 5.80086L19.1849 9.99602L14.875 12.4843V8.03341L18.5919 5.37846L17.5748 3.95443L14.875 5.88283V2.9165H13.125V5.88281L10.4253 3.95443L9.40811 5.37846L13.125 8.03339Z" fill="#131313"/>
</g>
</svg>
