<svg width="27" height="24" viewBox="0 0 27 24" fill="none" xmlns="http://www.w3.org/2000/svg">
<g id="Cycladic Homes">
<g id="Vector">
<path d="M12.9375 5.25C12.4715 5.25 12.0938 5.58579 12.0938 6C12.0938 6.41421 12.4715 6.75 12.9375 6.75H14.0625C14.5285 6.75 14.9062 6.41421 14.9062 6C14.9062 5.58579 14.5285 5.25 14.0625 5.25H12.9375Z" fill="#131313"/>
<path fill-rule="evenodd" clip-rule="evenodd" d="M22.5 21.75C23.5873 21.75 24.4688 20.9665 24.4688 20V4C24.4688 3.0335 23.5873 2.25 22.5 2.25H4.5C3.41269 2.25 2.53125 3.0335 2.53125 4V20C2.53125 20.9665 3.41269 21.75 4.5 21.75H22.5ZM4.21875 4C4.21875 3.86193 4.34467 3.75 4.5 3.75H22.5C22.6553 3.75 22.7812 3.86193 22.7812 4V20C22.7812 20.1381 22.6553 20.25 22.5 20.25H17.7188V11C17.7188 8.92893 15.83 7.25 13.5 7.25C11.17 7.25 9.28125 8.92893 9.28125 11V20.25H4.5C4.34467 20.25 4.21875 20.1381 4.21875 20V4ZM10.9688 20.25V18.75H16.0312V20.25H10.9688ZM16.0312 15.75V17.25H10.9688V15.75H16.0312ZM16.0312 11V14.25H10.9688V11C10.9688 9.75736 12.102 8.75 13.5 8.75C14.898 8.75 16.0312 9.75736 16.0312 11Z" fill="#131313"/>
</g>
</g>
</svg>
