<svg width="27" height="28" viewBox="0 0 27 28" fill="none" xmlns="http://www.w3.org/2000/svg">
<g id="Frame">
<path id="Vector" d="M12.375 15.1667C12.6938 15.1667 12.9611 15.0547 13.1771 14.8307C13.3931 14.6067 13.5007 14.3298 13.5 14C13.4993 13.6702 13.3912 13.3933 13.176 13.1693C12.9607 12.9453 12.6938 12.8333 12.375 12.8333C12.0562 12.8333 11.7893 12.9453 11.574 13.1693C11.3588 13.3933 11.2508 13.6702 11.25 14C11.2492 14.3298 11.3573 14.6071 11.574 14.8318C11.7908 15.0566 12.0577 15.1682 12.375 15.1667ZM7.875 24.5V22.1667L14.625 21V8.02083C14.625 7.72917 14.5406 7.46667 14.3719 7.23333C14.2031 7 13.9875 6.86389 13.725 6.825L7.875 5.83333V3.5L14.0625 4.55C14.8875 4.70556 15.5625 5.10417 16.0875 5.74583C16.6125 6.3875 16.875 7.13611 16.875 7.99167V22.925L7.875 24.5ZM3.375 24.5V22.1667H5.625V5.83333C5.625 5.17222 5.8455 4.61806 6.2865 4.17083C6.7275 3.72361 7.257 3.5 7.875 3.5H19.125C19.7625 3.5 20.2969 3.72361 20.7281 4.17083C21.1594 4.61806 21.375 5.17222 21.375 5.83333V22.1667H23.625V24.5H3.375ZM7.875 22.1667H19.125V5.83333H7.875V22.1667Z" fill="black"/>
</g>
</svg>
