<svg width="26" height="26" viewBox="0 0 26 26" fill="none" xmlns="http://www.w3.org/2000/svg">
<g id="Hot Tub">
<g id="Vector">
<path fill-rule="evenodd" clip-rule="evenodd" d="M4.07276 11.1043C4.15583 10.0125 4.73687 9.05988 5.58928 8.47307C5.24171 7.92735 5.03982 7.27892 5.03982 6.58382C5.03982 4.63932 6.61615 3.06299 8.56065 3.06299C10.5052 3.06299 12.0815 4.63932 12.0815 6.58382C12.0815 7.22772 11.9083 7.83143 11.6066 8.3506C12.2998 8.65028 12.9372 9.08006 13.4816 9.6244L13.5562 9.69898C13.9957 10.1385 14.4018 10.6083 14.772 11.1043H22.75V12.7293H21.3958V21.1252C21.3958 22.1722 20.547 23.021 19.5 23.021H6.5C5.45296 23.021 4.60417 22.1722 4.60417 21.1252V12.7293H3.25V11.1043H4.07276ZM6.66482 6.58382C6.66482 5.53678 7.51361 4.68799 8.56065 4.68799C9.60769 4.68799 10.4565 5.53678 10.4565 6.58382C10.4565 7.09353 10.2561 7.55588 9.92778 7.89732C9.69023 7.86884 9.45003 7.85436 9.20833 7.85436V9.47936C10.3801 9.47936 11.5039 9.94486 12.3325 10.7735L12.4071 10.848C12.4913 10.9322 12.5741 11.0177 12.6554 11.1043H5.7067C5.83812 10.1856 6.62825 9.47936 7.58333 9.47936V7.85436C7.44523 7.85436 7.30898 7.86231 7.17503 7.87778C6.85772 7.53832 6.66482 7.08402 6.66482 6.58382ZM13.9219 12.7293C14.2566 13.2511 14.5484 13.8008 14.7937 14.3731L15.5032 16.0286L16.9968 15.3885L16.2873 13.733C16.1408 13.3911 15.9798 13.0562 15.8048 12.7293H19.7708V21.1252C19.7708 21.2748 19.6496 21.396 19.5 21.396H6.5C6.35042 21.396 6.22917 21.2748 6.22917 21.1252V12.7293H13.9219Z" fill="#131313"/>
<path d="M16.9346 4.93911C17.1968 4.41472 17.3333 3.83647 17.3333 3.25018H18.9583C18.9583 4.08875 18.7631 4.9158 18.3881 5.66584L17.3709 7.69996C16.9897 8.45996 16.7917 8.85481 16.7917 9.75018H15.1667C15.1667 8.5554 15.4448 7.91869 15.9792 6.85004L16.9346 4.93911Z" fill="#131313"/>
<path d="M20.5833 3.25018C20.5833 3.83647 20.4468 4.41472 20.1846 4.93911L19.2292 6.85004C18.6948 7.91869 18.4167 8.5554 18.4167 9.75018H20.0417C20.0417 8.85481 20.2397 8.45996 20.6209 7.69996L21.6381 5.66584C22.0131 4.9158 22.2083 4.08875 22.2083 3.25018H20.5833Z" fill="#131313"/>
</g>
</g>
</svg>
