<svg width="26" height="28" viewBox="0 0 26 28" fill="none" xmlns="http://www.w3.org/2000/svg">
<g id="Parking">
<g id="Vector">
<path d="M16.7917 17.2083H9.20833V15.4583H16.7917V17.2083Z" fill="#131313"/>
<path d="M6.5 15.4583C6.05127 15.4583 5.6875 15.8501 5.6875 16.3333C5.6875 16.8166 6.05127 17.2083 6.5 17.2083H7.04167C7.4904 17.2083 7.85417 16.8166 7.85417 16.3333C7.85417 15.8501 7.4904 15.4583 7.04167 15.4583H6.5Z" fill="#131313"/>
<path d="M18.9583 15.4583C18.5096 15.4583 18.1458 15.8501 18.1458 16.3333C18.1458 16.8166 18.5096 17.2083 18.9583 17.2083H19.5C19.9487 17.2083 20.3125 16.8166 20.3125 16.3333C20.3125 15.8501 19.9487 15.4583 19.5 15.4583H18.9583Z" fill="#131313"/>
<path fill-rule="evenodd" clip-rule="evenodd" d="M8.34213 6.125C7.54492 6.125 6.83288 6.6621 6.56044 7.46894L5.83242 9.625H3.25V11.375H5.24151L4.86758 12.4824C4.05646 13.0557 3.52083 14.0438 3.52083 15.1667V22.1667C3.52083 23.2942 4.36963 24.2083 5.41667 24.2083H5.95833C7.00537 24.2083 7.85417 23.2942 7.85417 22.1667V20.7083H18.1458V22.1667C18.1458 23.2942 18.9946 24.2083 20.0417 24.2083H20.5833C21.6304 24.2083 22.4792 23.2942 22.4792 22.1667V15.1667C22.4792 14.0438 21.9435 13.0557 21.1324 12.4824L20.7585 11.375H22.75V9.625H20.1676L19.4396 7.46894C19.1671 6.6621 18.4551 6.125 17.6579 6.125H8.34213ZM19.2264 11.9583L17.9124 8.06699C17.8735 7.95173 17.7718 7.875 17.6579 7.875H8.34213C8.22824 7.875 8.12652 7.95173 8.0876 8.06699L6.77364 11.9583H19.2264ZM19.7708 22.1667V20.7083H20.8542V22.1667C20.8542 22.3278 20.7329 22.4583 20.5833 22.4583H20.0417C19.8921 22.4583 19.7708 22.3278 19.7708 22.1667ZM5.14583 20.7083H6.22917V22.1667C6.22917 22.3278 6.10791 22.4583 5.95833 22.4583H5.41667C5.26709 22.4583 5.14583 22.3278 5.14583 22.1667V20.7083ZM6.5 13.7083C5.75211 13.7083 5.14583 14.3613 5.14583 15.1667V18.9583H20.8542V15.1667C20.8542 14.3613 20.2479 13.7083 19.5 13.7083H6.5Z" fill="#131313"/>
</g>
</g>
</svg>
