<svg width="24" height="24" viewBox="0 0 24 24" fill="none" xmlns="http://www.w3.org/2000/svg">
<g id="Skiing">
<g id="Vector">
<path fill-rule="evenodd" clip-rule="evenodd" d="M6.14735 10.8902L4.33691 17.5633L3.3913 17.2788L3 18.7211L3.94561 19.0056L3.46044 20.7939L4.82999 21.206L5.31516 19.4177L6.32348 19.7211L6.71477 18.2788L5.70645 17.9754L7.03255 13.0876L8.96133 17.8754L8.09976 18.3291L8.73675 19.6707L9.51869 19.259L10.1366 20.7928L11.4478 20.207L10.7952 18.5869L11.5854 18.1707L10.9485 16.8291L10.2378 17.2033L7.65521 10.7925L9.57781 3.70597L8.20827 3.29389L6.77002 8.59513L4.80085 3.70697L3.48962 4.2928L6.14735 10.8902Z" fill="#131313"/>
<path fill-rule="evenodd" clip-rule="evenodd" d="M12.5035 3.69861C12.9231 1.9312 15.3082 1.93119 15.7278 3.69861L16.2026 5.69861C16.2355 5.83742 16.2522 5.97996 16.2522 6.12305V19.9999C16.2522 20.9664 15.5082 21.7499 14.5904 21.7499H13.6409C12.7231 21.7499 11.9791 20.9664 11.9791 19.9999V6.12305C11.9791 5.97996 11.9958 5.83742 12.0288 5.69861L12.5035 3.69861ZM13.968 3.91948C13.9386 3.94194 13.9048 3.98061 13.8854 4.06241L13.4106 6.06241C13.4059 6.08224 13.4035 6.10261 13.4035 6.12305V10.7499H14.8278V6.12305C14.8278 6.10261 14.8254 6.08224 14.8207 6.06241L14.346 4.06241C14.3265 3.98061 14.2927 3.94194 14.2634 3.91948C14.2281 3.89256 14.1765 3.87305 14.1157 3.87305C14.0548 3.87305 14.0032 3.89256 13.968 3.91948ZM14.8278 12.2499H13.4035V13.7499H14.8278V12.2499ZM14.8278 15.2499H13.4035V19.9999C13.4035 20.138 13.5098 20.2499 13.6409 20.2499H14.5904C14.7215 20.2499 14.8278 20.138 14.8278 19.9999V15.2499Z" fill="#131313"/>
<path fill-rule="evenodd" clip-rule="evenodd" d="M17.2514 3.69861C17.6709 1.9312 20.056 1.93119 20.4756 3.69861L20.9504 5.69861C20.9833 5.83742 21 5.97996 21 6.12305V19.9999C21 20.9664 20.256 21.7499 19.3383 21.7499H18.3887C17.4709 21.7499 16.727 20.9664 16.727 19.9999V6.12305C16.727 5.97996 16.7436 5.83742 16.7766 5.69861L17.2514 3.69861ZM18.7158 3.91948C18.6864 3.94194 18.6526 3.98061 18.6332 4.06241L18.1584 6.06241C18.1537 6.08224 18.1513 6.10261 18.1513 6.12305V10.7499H19.5757V6.12305C19.5757 6.10261 19.5733 6.08224 19.5686 6.06241L19.0938 4.06241C19.0744 3.98061 19.0406 3.94194 19.0112 3.91948C18.9759 3.89256 18.9243 3.87305 18.8635 3.87305C18.8027 3.87305 18.751 3.89256 18.7158 3.91948ZM19.5757 12.2499H18.1513V13.7499H19.5757V12.2499ZM19.5757 15.2499H18.1513V19.9999C18.1513 20.138 18.2576 20.2499 18.3887 20.2499H19.3383C19.4694 20.2499 19.5757 20.138 19.5757 19.9999V15.2499Z" fill="#131313"/>
</g>
</g>
</svg>
