<svg width="32" height="29" viewBox="0 0 32 29" fill="none" xmlns="http://www.w3.org/2000/svg">
<g id="Superhost">
<g id="Vector">
<path fill-rule="evenodd" clip-rule="evenodd" d="M7.99996 3.32275C6.7113 3.32275 5.66663 4.26948 5.66663 5.43734V9.52388C5.66663 10.3248 6.16597 11.057 6.95646 11.4152L14.9565 15.0402C15.6134 15.3379 16.3866 15.3379 17.0435 15.0402L25.0435 11.4152C25.834 11.057 26.3333 10.3248 26.3333 9.52388V5.43734C26.3333 4.26948 25.2886 3.32275 24 3.32275H7.99996ZM7.66663 5.43734C7.66663 5.2705 7.81586 5.13525 7.99996 5.13525H24C24.1841 5.13525 24.3333 5.2705 24.3333 5.43734V9.52388C24.3333 9.6383 24.262 9.7429 24.149 9.79407L16.149 13.4191C16.0552 13.4616 15.9447 13.4616 15.8509 13.4191L7.85089 9.79407C7.73796 9.7429 7.66663 9.6383 7.66663 9.52388V5.43734Z" fill="#131313"/>
<path fill-rule="evenodd" clip-rule="evenodd" d="M21.3333 21.1457C21.3333 23.815 18.9455 25.979 16 25.979C13.0544 25.979 10.6666 23.815 10.6666 21.1457C10.6666 18.4763 13.0544 16.3123 16 16.3123C18.9455 16.3123 21.3333 18.4763 21.3333 21.1457ZM19.3333 21.1457C19.3333 22.814 17.8409 24.1665 16 24.1665C14.159 24.1665 12.6666 22.814 12.6666 21.1457C12.6666 19.4773 14.159 18.1248 16 18.1248C17.8409 18.1248 19.3333 19.4773 19.3333 21.1457Z" fill="#131313"/>
</g>
</g>
</svg>
