<svg width="28" height="28" viewBox="0 0 28 28" fill="none" xmlns="http://www.w3.org/2000/svg">
<g id="TV cable">
<path id="Vector" fill-rule="evenodd" clip-rule="evenodd" d="M2.625 8.75C2.625 6.33375 4.58375 4.375 7 4.375H21C23.4162 4.375 25.375 6.33375 25.375 8.75V16.3333C25.375 18.7496 23.4162 20.7083 21 20.7083H17.7917V22.4583H19.8333V24.2083H8.16667V22.4583H10.2083V20.7083H7C4.58375 20.7083 2.625 18.7496 2.625 16.3333V8.75ZM11.9583 20.7083V22.4583H16.0417V20.7083H11.9583ZM7 6.125C5.55025 6.125 4.375 7.30025 4.375 8.75V16.3333C4.375 17.7831 5.55025 18.9583 7 18.9583H21C22.4497 18.9583 23.625 17.7831 23.625 16.3333V8.75C23.625 7.30025 22.4497 6.125 21 6.125H7Z" fill="#131313"/>
</g>
</svg>
